<?xml version="1.0" standalone="no"?>
<!DOCTYPE svg PUBLIC "-//W3C//DTD SVG 20010904//EN"
 "http://www.w3.org/TR/2001/REC-SVG-20010904/DTD/svg10.dtd">
<svg version="1.0" xmlns="http://www.w3.org/2000/svg"
 width="763.000000pt" height="157.000000pt" viewBox="0 0 763.000000 157.000000"
 preserveAspectRatio="xMidYMid meet">

<g transform="translate(0.000000,157.000000) scale(0.100000,-0.100000)"
fill="#000000" stroke="none">
<path d="M629 1491 l-73 -39 -32 -100 c-32 -103 -86 -213 -152 -312 -20 -30
-40 -57 -43 -60 -24 -21 -124 -187 -179 -299 -72 -145 -109 -256 -113 -341 -2
-63 14 -80 60 -61 24 10 42 38 105 169 42 87 85 165 95 174 15 13 54 17 223
22 113 3 250 9 306 12 l100 6 63 -123 c35 -68 69 -131 77 -140 8 -8 14 -20 14
-25 1 -14 43 -60 67 -73 36 -18 68 -13 82 13 15 27 9 54 -24 106 -12 19 -38
67 -57 106 -20 39 -41 79 -46 90 -6 10 -31 61 -57 112 -25 51 -63 120 -83 155
-21 34 -55 95 -76 135 -20 40 -41 81 -46 90 -38 70 -53 128 -70 277 -18 149
-35 162 -141 106z m78 -401 c37 -76 123 -280 123 -293 0 -2 -58 -10 -130 -17
-142 -14 -231 -8 -252 17 -19 23 -12 115 11 162 37 72 174 224 196 218 6 -1
29 -41 52 -87z"/>
<path d="M6255 1513 c-35 -34 -94 -122 -145 -213 -92 -165 -260 -438 -324
-525 -33 -47 -80 -112 -103 -145 -24 -33 -47 -60 -51 -60 -5 0 -62 55 -128
122 -95 98 -127 138 -156 198 -46 91 -68 186 -68 288 0 58 -5 82 -18 98 -46
57 -82 27 -90 -76 -4 -66 -6 -71 -31 -76 -87 -21 -96 -75 -25 -155 l47 -53 -7
-160 c-21 -495 -22 -551 -7 -563 36 -31 54 15 146 352 23 86 42 104 64 61 24
-43 282 -236 317 -236 15 0 32 13 52 43 15 23 58 85 94 137 36 52 107 176 157
275 76 150 101 190 152 243 33 34 62 62 64 62 3 0 20 -68 51 -205 19 -84 27
-160 35 -320 12 -279 24 -388 46 -433 16 -34 22 -37 63 -40 35 -2 50 2 68 18
21 20 22 29 22 164 0 115 -6 180 -31 322 -32 189 -48 387 -49 594 0 157 -14
248 -42 278 -26 27 -79 30 -103 5z"/>
<path d="M2564 1486 c-14 -38 4 -98 40 -135 l36 -36 188 3 187 3 50 -38 c28
-21 56 -52 64 -68 8 -17 18 -33 23 -36 27 -17 18 -298 -18 -626 -18 -159 -14
-204 21 -239 31 -30 84 -32 110 -4 45 50 63 365 41 708 -9 149 -12 252 -6 267
12 32 48 55 86 55 66 0 249 39 261 56 15 21 3 47 -34 72 -24 15 -59 17 -323
17 -162 1 -390 5 -507 9 -196 8 -213 8 -219 -8z"/>
<path d="M7215 1469 c-389 -69 -479 -91 -512 -127 -32 -35 -31 -85 3 -119 25
-25 29 -25 102 -19 235 21 210 22 221 -7 18 -47 24 -240 12 -363 -29 -284 -52
-494 -62 -557 -13 -81 -8 -78 -174 -101 -98 -13 -123 -20 -137 -37 -10 -12
-18 -29 -18 -38 0 -23 37 -80 56 -88 19 -7 80 5 239 47 66 17 145 37 175 44
193 45 418 114 445 136 21 17 19 37 -5 50 -15 8 -38 8 -82 0 -34 -6 -105 -12
-159 -12 -158 0 -176 26 -165 242 20 435 27 535 40 622 8 54 19 106 25 116 11
20 33 25 226 57 99 16 135 33 135 63 0 27 -44 81 -74 92 -35 12 -221 11 -291
-1z"/>
<path d="M4725 1430 c-29 -7 -209 -71 -250 -89 -11 -5 -49 -17 -85 -26 -36
-10 -97 -28 -135 -41 -88 -28 -246 -59 -385 -74 -149 -17 -181 -39 -165 -110
10 -44 28 -53 103 -51 53 2 276 42 362 65 25 7 121 36 195 61 101 33 249 80
334 106 111 34 150 75 121 129 -13 24 -58 38 -95 30z"/>
<path d="M1905 1334 c-11 -2 -90 -8 -175 -13 -208 -14 -270 -26 -293 -57 -26
-34 -34 -114 -48 -434 -16 -373 -16 -425 6 -490 21 -64 40 -90 68 -90 35 0 46
29 47 120 1 150 38 330 68 330 12 0 336 -152 352 -166 9 -7 58 -33 110 -57 52
-24 126 -59 165 -77 95 -44 173 -69 217 -70 42 0 52 11 44 45 -7 26 -83 105
-101 105 -5 0 -44 17 -85 38 -41 22 -88 42 -105 46 -43 10 -215 95 -315 155
-47 28 -100 58 -117 68 -18 9 -33 23 -33 30 0 7 37 30 83 51 95 45 251 139
294 179 17 16 62 49 100 75 70 48 93 78 93 123 0 39 -11 55 -51 75 -33 17 -57
20 -171 19 -73 -1 -142 -3 -153 -5z m143 -116 c16 -21 0 -45 -59 -87 -115 -82
-401 -213 -421 -193 -6 6 -11 45 -11 87 0 60 4 79 19 96 32 36 112 70 202 85
48 9 89 17 91 20 11 11 169 3 179 -8z"/>
<path d="M4658 1070 c-56 -10 -159 -39 -173 -50 -18 -13 -211 -66 -485 -132
-145 -35 -180 -55 -180 -103 0 -28 42 -74 69 -76 40 -3 82 6 316 65 230 58
426 118 483 148 45 23 92 78 92 106 0 51 -22 59 -122 42z"/>
<path d="M4705 763 c-11 -3 -87 -24 -170 -48 -198 -57 -398 -110 -513 -136
-146 -33 -197 -92 -140 -164 20 -26 24 -27 87 -22 36 3 102 17 146 30 244 78
374 116 410 122 62 11 231 54 262 67 45 19 63 39 63 70 0 31 -16 68 -34 80
-12 8 -79 9 -111 1z"/>
</g>
</svg>
